<svg width="48" height="51" viewBox="0 0 48 51" fill="none" xmlns="http://www.w3.org/2000/svg">
<mask id="mask0_427_531" style="mask-type:luminance" maskUnits="userSpaceOnUse" x="0" y="0" width="48" height="51">
<path d="M0.753906 0.870117H47.9058V50.8701H0.753906V0.870117Z" fill="white"/>
</mask>
<g mask="url(#mask0_427_531)">
<path fill-rule="evenodd" clip-rule="evenodd" d="M0.834326 30.4164C0.717554 30.2892 0.729896 30.08 0.861858 29.9708C0.892867 29.9425 0.92927 29.9206 0.968901 29.9066C1.00853 29.8926 1.05058 29.8867 1.09254 29.8892C1.1345 29.8918 1.17551 29.9028 1.21314 29.9215C1.25076 29.9403 1.28423 29.9664 1.31154 29.9984C1.31154 29.9984 3.16471 31.817 5.46977 34.218C6.01776 34.787 6.55842 35.363 7.0916 35.9458C7.44847 36.3301 7.80134 36.7181 8.15015 37.1098C9.03559 38.1284 9.89287 39.1743 10.6831 40.1382C11.9339 41.6683 13.165 43.2145 14.3761 44.7762C14.4037 44.8072 14.4249 44.8434 14.4384 44.8827C14.4519 44.9219 14.4575 44.9634 14.4549 45.0049C14.4523 45.0463 14.4415 45.0868 14.4231 45.124C14.4048 45.1613 14.3792 45.1945 14.3479 45.2218C14.2163 45.3401 14.0153 45.3218 13.8989 45.1946C13.8989 45.1946 12.0486 43.3667 9.753 40.9658C8.89002 40.0563 7.96281 39.0832 7.06059 38.074C6.71013 37.6826 6.3662 37.2854 6.02895 36.8825C5.50363 36.2642 4.99414 35.6547 4.51502 35.0636C2.42009 32.481 0.834326 30.4164 0.834326 30.4164ZM1.03021 46.686C0.988404 46.6801 0.948174 46.666 0.911821 46.6445C0.875469 46.623 0.843705 46.5946 0.818344 46.5608C0.792984 46.527 0.774523 46.4886 0.764017 46.4477C0.75351 46.4068 0.751164 46.3642 0.757111 46.3224C0.780845 46.1496 0.941288 46.0313 1.11566 46.0496C1.11566 46.0496 2.13907 46.0132 3.46914 46.0496C3.76977 46.0585 4.08274 46.0768 4.403 46.1041C4.60838 46.1221 4.81597 46.1405 5.02167 46.1677C5.5492 46.2496 6.06787 46.3677 6.54793 46.486C7.3116 46.6624 8.06882 46.8656 8.81819 47.0952C8.85965 47.1001 8.89971 47.1132 8.93604 47.1337C8.97236 47.1543 9.00421 47.1819 9.02971 47.215C9.05521 47.248 9.07385 47.2858 9.08453 47.3262C9.09522 47.3665 9.09773 47.4086 9.09192 47.4499C9.06819 47.6227 8.90743 47.7499 8.73274 47.7227C8.73274 47.7227 7.70901 47.7591 6.38148 47.7139C5.88781 47.6955 5.35743 47.6683 4.82705 47.6136C4.62165 47.5851 4.41695 47.5517 4.21312 47.5136C3.90681 47.4538 3.60188 47.3871 3.29857 47.3136C2.00648 46.9952 1.03021 46.686 1.03021 46.686ZM20.5169 7.79014C20.4378 7.75822 20.3744 7.69645 20.3404 7.61818C20.3064 7.5399 20.3046 7.4514 20.3353 7.37179C20.3661 7.29311 20.4268 7.22982 20.5041 7.19573C20.5814 7.16164 20.6691 7.15952 20.7479 7.18982C22.2283 7.72622 24.9369 8.06292 27.8482 8.06292C30.2612 8.06292 32.8134 7.82653 34.9172 7.21704C35.671 6.99868 36.2745 6.67147 36.6467 6.26229C36.9865 5.88951 37.0574 5.44394 36.741 4.98919C36.5039 4.65248 36.1021 4.32527 35.5318 3.99774C34.9027 3.64331 34.0843 3.3066 33.046 3.0066C30.8739 2.35153 28.6717 2.10628 26.6834 2.06989C23.9122 2.03349 21.5546 2.40628 20.2717 2.79742C19.2426 3.1066 18.4751 3.63413 18.1922 4.24362C17.9834 4.68887 18.0859 5.1528 18.5732 5.5528C18.7131 5.66198 18.7388 5.86198 18.6315 5.99837C18.5239 6.14394 18.3242 6.16229 18.185 6.06229C17.3584 5.46198 17.2093 4.6797 17.5103 3.94331C17.8248 3.16103 18.7195 2.40628 19.9926 1.95153C21.3191 1.47875 23.771 0.942039 26.678 0.878748C28.7793 0.824001 31.1147 1.024 33.4305 1.64236C35.2964 2.16071 36.5473 2.8066 37.303 3.4702C38.0229 4.10691 38.3413 4.78001 38.3831 5.39837C38.4204 5.94394 38.2603 6.47115 37.9103 6.93508C37.4084 7.61736 36.4865 8.19932 35.2663 8.50849C33.0343 9.06324 30.3501 9.21767 27.8233 9.09963C24.8049 8.95406 22.0201 8.41736 20.5176 7.79014H20.5169Z" fill="black"/>
<path fill-rule="evenodd" clip-rule="evenodd" d="M21.0286 7.61713C21.0423 7.57762 21.0639 7.54126 21.0919 7.51019C21.1199 7.47911 21.1539 7.45393 21.1917 7.43613C21.2296 7.41833 21.2706 7.40826 21.3124 7.40652C21.3543 7.40478 21.396 7.4114 21.4352 7.42599C21.6007 7.48073 21.6877 7.6627 21.6298 7.83548C21.2121 9.17219 20.5295 12.2915 19.8805 15.3924C19.5602 16.9119 19.2513 18.4338 18.9539 19.9579C18.6884 21.313 18.4846 22.3953 18.451 22.9317C18.4162 23.3412 18.6194 23.8779 18.9975 24.4323C19.6665 25.4146 20.8786 26.3966 22.6425 26.906C24.3681 27.3972 26.5912 27.4516 29.3343 26.6149C29.3734 26.6002 29.415 26.5936 29.4568 26.5952C29.4985 26.5969 29.5395 26.607 29.5774 26.6248C29.6152 26.6425 29.649 26.6677 29.677 26.6988C29.7049 26.7299 29.7263 26.7662 29.7399 26.8057C29.7969 26.9785 29.7083 27.1605 29.5415 27.2152C25.8694 28.6247 22.9782 28.3975 20.9232 27.5516C19.3156 26.8877 18.2118 25.8329 17.5991 24.8415C17.1529 24.114 16.9763 23.3953 17.0074 22.832C17.0418 22.3497 17.1865 21.4314 17.4308 20.2763C17.6945 19.0514 17.9853 17.8324 18.3029 16.6203C19.2229 13.0918 20.4251 9.15415 21.0286 7.61713ZM33.015 8.18991C33.0295 8.10667 33.076 8.03243 33.1447 7.98315C33.2133 7.93386 33.2985 7.91345 33.382 7.9263C33.4232 7.93274 33.4626 7.94732 33.4981 7.96918C33.5336 7.99105 33.5643 8.01976 33.5885 8.05365C33.6127 8.08754 33.6299 8.12591 33.6392 8.16654C33.6484 8.20716 33.6494 8.24921 33.6422 8.29023C33.6422 8.29023 33.4466 10.4725 33.1102 13.3918C33.0358 14.0374 32.9485 14.7197 32.852 15.4292C32.7912 15.8655 32.7292 16.3203 32.652 16.775C32.4631 17.8934 32.2393 19.0212 32.0184 20.1307C31.6472 21.9858 31.2574 23.7412 30.9918 25.1415C30.9691 25.3143 30.8089 25.4418 30.6355 25.4143C30.5941 25.4094 30.554 25.3962 30.5176 25.3757C30.4813 25.3552 30.4494 25.3276 30.4237 25.2946C30.3981 25.2617 30.3793 25.2239 30.3684 25.1836C30.3575 25.1433 30.3547 25.1012 30.3602 25.0598C30.4583 23.632 30.5871 21.8314 30.7906 19.9396C30.9118 18.8212 31.0472 17.6662 31.2165 16.5475C31.2855 16.0928 31.3684 15.6383 31.4507 15.2016C31.582 14.5013 31.7156 13.8282 31.8526 13.1826C32.4729 10.3092 33.015 8.18991 33.015 8.18991Z" fill="black"/>
<path fill-rule="evenodd" clip-rule="evenodd" d="M31.7325 24.396C31.6861 24.3247 31.6696 24.238 31.6866 24.1546C31.7035 24.0712 31.7527 23.9979 31.8234 23.9505C31.8583 23.9272 31.8975 23.9111 31.9387 23.9031C31.9799 23.8951 32.0222 23.8953 32.0633 23.9037C32.1044 23.9122 32.1435 23.9287 32.1782 23.9523C32.2128 23.9759 32.2425 24.0062 32.2655 24.0413C33.7936 26.1967 34.3955 28.452 34.2601 30.2891C34.1221 32.1717 33.2018 33.6084 31.7727 34.2451C30.3645 34.8454 28.4031 35.2182 26.2335 35.2365C24.4677 35.2454 22.5667 35.0271 20.7338 34.6087C19.2572 34.2631 17.8262 33.7812 16.5408 33.1536C14.3094 32.0625 12.5174 30.5619 11.6689 28.6521C11.5917 28.4976 11.6582 28.3068 11.8164 28.2248C11.9746 28.1521 12.1655 28.2153 12.2427 28.3793C13.3999 30.5802 15.9958 32.0169 18.9572 32.8628C20.9585 33.4359 23.1313 33.7176 25.1734 33.7723C26.2693 33.7995 27.3256 33.7723 28.2984 33.6631C29.4341 33.5448 30.4544 33.3448 31.2724 33.0264C32.5946 32.5264 33.2727 31.035 33.2392 29.1979C33.212 27.7337 32.7443 26.0511 31.7325 24.396ZM17.7927 21.7767C17.968 21.7679 18.1234 21.8951 18.1408 22.0679C18.1484 22.1516 18.1226 22.235 18.0689 22.2998C18.0153 22.3646 17.9381 22.4054 17.8544 22.4134C17.3379 22.5407 16.8386 22.7774 16.3249 23.059C16.0069 23.241 15.7015 23.441 15.3914 23.6502C15.1386 23.8141 14.8946 24.0049 14.6484 24.1777C14.3993 24.3596 14.1503 24.5321 13.9129 24.7144C13.4892 25.0508 13.0946 25.3691 12.7756 25.7144C12.3974 26.1331 12.0936 26.5242 11.9645 26.9334C11.9335 27.1062 11.7683 27.215 11.5952 27.1878C11.4218 27.1606 11.3063 26.9878 11.337 26.815C11.3772 26.0603 11.7642 25.1872 12.4136 24.3505C12.7585 23.9049 13.1794 23.4685 13.661 23.1046C13.8465 22.959 14.0455 22.8318 14.2503 22.7134C14.5575 22.5407 14.873 22.377 15.2012 22.259C16.074 21.9223 16.9623 21.7587 17.7927 21.7767Z" fill="black"/>
<path fill-rule="evenodd" clip-rule="evenodd" d="M20.2659 43.0755C21.2535 40.1417 22.257 37.2133 23.2763 34.2904C23.2889 34.2504 23.3092 34.2133 23.3361 34.1812C23.363 34.149 23.3959 34.1225 23.4331 34.1031C23.4702 34.0837 23.5108 34.0718 23.5526 34.0681C23.5943 34.0644 23.6363 34.069 23.6763 34.0815C23.7163 34.0941 23.7534 34.1144 23.7856 34.1413C23.8177 34.1682 23.8442 34.2011 23.8636 34.2383C23.883 34.2754 23.8949 34.316 23.8986 34.3577C23.9023 34.3995 23.8977 34.4415 23.8852 34.4815C23.8852 34.4815 22.5133 39.6015 21.264 44.0122C20.3102 47.3863 19.4228 50.3416 19.4228 50.3416C19.3704 50.5167 19.2538 50.6655 19.0964 50.7582C18.939 50.851 18.7523 50.8809 18.5738 50.842C18.3949 50.8028 18.2373 50.6978 18.1322 50.5479C18.0271 50.3979 17.9822 50.214 18.0064 50.0325C18.0064 50.0325 18.4102 47.0043 18.9349 43.5847C19.6228 39.0923 20.5048 33.9176 20.5048 33.9176C20.51 33.876 20.5234 33.836 20.5443 33.7997C20.5652 33.7634 20.5931 33.7316 20.6264 33.7062C20.6597 33.6808 20.6977 33.6623 20.7382 33.6517C20.7787 33.6412 20.821 33.6389 20.8624 33.6448C20.9039 33.6498 20.944 33.6629 20.9803 33.6835C21.0167 33.7041 21.0486 33.7316 21.0742 33.7646C21.0998 33.7976 21.1186 33.8354 21.1295 33.8757C21.1404 33.9161 21.1432 33.9581 21.1377 33.9996C21.1377 33.9996 20.7187 38.7284 20.2659 43.0755Z" fill="black"/>
<path fill-rule="evenodd" clip-rule="evenodd" d="M32.3582 24.796L38.4955 18.8302C38.4955 18.8302 37.5006 15.3926 38.8208 14.2375C40.4221 12.828 43.8443 13.41 45.9392 15.5473C48.3094 17.9663 48.4348 21.2308 46.8455 22.3315C45.5617 23.2134 43.7734 22.4315 43.7734 22.4315C43.7734 22.4315 38.4727 33.0808 38.3481 34.8543C38.3481 34.8543 40.3585 38.4011 35.7069 39.4286C32.5917 40.1198 28.4939 38.5467 28.4939 38.5467L18.9414 49.4413L18.9585 49.3869L27.3278 37.928C27.3278 37.928 24.4474 36.9913 23.2202 35.5546L23.581 34.3903C26.6515 34.6907 29.6136 34.4179 31.5246 33.6356C34.006 32.6081 34.6123 28.6609 32.3582 24.796Z" fill="black"/>
</g>
</svg>
