<svg width="21" height="20" viewBox="0 0 21 20" fill="none" xmlns="http://www.w3.org/2000/svg">
<g clip-path="url(#clip0_164_2157)">
<path d="M5.16646 10.0168C5.16646 10.9613 5.40268 11.8391 5.87513 12.6502C6.34757 13.4613 6.98913 14.1113 7.79979 14.6002C7.95535 14.7002 8.06379 14.8364 8.12513 15.0088C8.18646 15.1813 8.17246 15.3451 8.08313 15.5002C7.99424 15.6668 7.85824 15.7753 7.67513 15.8255C7.49202 15.8757 7.3169 15.8562 7.14979 15.7668C6.11646 15.1668 5.30535 14.3557 4.71646 13.3335C4.12757 12.3113 3.83313 11.2057 3.83313 10.0168C3.83313 9.72794 3.85268 9.44461 3.89179 9.16683C3.9309 8.88905 3.98357 8.61127 4.04979 8.3335L3.83313 8.46683C3.67757 8.56683 3.5109 8.59194 3.33313 8.54216C3.15535 8.49238 3.02202 8.3895 2.93313 8.2335C2.84424 8.0775 2.82468 7.90794 2.87446 7.72483C2.92424 7.54172 3.02713 7.40572 3.18313 7.31683L5.19979 6.15016C5.35535 6.06127 5.5249 6.04194 5.70846 6.09216C5.89202 6.14239 6.02802 6.24505 6.11646 6.40016L7.28313 8.40016C7.37202 8.55572 7.39157 8.72527 7.34179 8.90883C7.29202 9.09239 7.18913 9.22839 7.03313 9.31683C6.87713 9.40527 6.70779 9.42483 6.52513 9.3755C6.34246 9.32616 6.20624 9.22327 6.11646 9.06683L5.54979 8.0835C5.42757 8.39461 5.33313 8.71127 5.26646 9.0335C5.19979 9.35572 5.16646 9.6835 5.16646 10.0168ZM10.4998 4.66683C10.0442 4.66683 9.59424 4.72527 9.14979 4.84216C8.70535 4.95905 8.28313 5.12839 7.88313 5.35016C7.71646 5.43905 7.54157 5.46972 7.35846 5.44216C7.17535 5.41461 7.03913 5.32283 6.94979 5.16683C6.84979 4.98905 6.82757 4.80861 6.88313 4.6255C6.93868 4.44238 7.05535 4.30061 7.23313 4.20016C7.73313 3.91127 8.25824 3.69461 8.80846 3.55016C9.35868 3.40572 9.92246 3.3335 10.4998 3.3335C11.3776 3.3335 12.2193 3.4975 13.0251 3.8255C13.8309 4.1535 14.5502 4.62839 15.1831 5.25016V5.00016C15.1831 4.81127 15.2471 4.65305 15.3751 4.5255C15.5031 4.39794 15.6613 4.33394 15.8498 4.3335C16.0382 4.33305 16.1967 4.39705 16.3251 4.5255C16.4536 4.65394 16.5173 4.81216 16.5165 5.00016V7.3335C16.5165 7.52239 16.4527 7.68083 16.3251 7.80883C16.1976 7.93683 16.0391 8.00061 15.8498 8.00016H13.5165C13.3276 8.00016 13.1693 7.93616 13.0418 7.80816C12.9142 7.68016 12.8502 7.52194 12.8498 7.3335C12.8493 7.14505 12.9133 6.98683 13.0418 6.85883C13.1702 6.73083 13.3285 6.66683 13.5165 6.66683H14.6665C14.1553 6.0335 13.5387 5.54194 12.8165 5.19216C12.0942 4.84239 11.322 4.66727 10.4998 4.66683ZM14.5331 13.5168C14.9553 13.0279 15.2776 12.4891 15.4998 11.9002C15.722 11.3113 15.8331 10.6946 15.8331 10.0502C15.8331 9.86127 15.8971 9.69461 16.0251 9.55016C16.1531 9.40572 16.3113 9.3335 16.4998 9.3335C16.6882 9.3335 16.8467 9.40572 16.9751 9.55016C17.1036 9.69461 17.1673 9.86127 17.1665 10.0502C17.1665 10.7724 17.0525 11.4695 16.8245 12.1415C16.5965 12.8135 16.266 13.4386 15.8331 14.0168C15.4002 14.5951 14.8865 15.0895 14.2918 15.5002C13.6971 15.9108 13.0498 16.2164 12.3498 16.4168L12.5165 16.5168C12.672 16.6057 12.772 16.7419 12.8165 16.9255C12.8609 17.1091 12.8387 17.2784 12.7498 17.4335C12.6609 17.5886 12.5276 17.6886 12.3498 17.7335C12.172 17.7784 12.0053 17.7562 11.8498 17.6668L9.81646 16.5002C9.6609 16.4113 9.55824 16.2751 9.50846 16.0915C9.45868 15.9079 9.47802 15.7386 9.56646 15.5835L10.7331 13.5668C10.822 13.4113 10.9553 13.3113 11.1331 13.2668C11.3109 13.2224 11.4776 13.2446 11.6331 13.3335C11.7887 13.4224 11.8916 13.5586 11.9418 13.7422C11.992 13.9257 11.9725 14.0951 11.8831 14.2502L11.2665 15.3002C11.8998 15.2113 12.4971 15.0139 13.0585 14.7082C13.6198 14.4024 14.1113 14.0053 14.5331 13.5168Z" fill="white"/>
</g>
<defs>
<clipPath id="clip0_164_2157">
<rect width="16" height="16" fill="white" transform="translate(2.5 2)"/>
</clipPath>
</defs>
</svg>
