<svg width="21" height="22" viewBox="0 0 21 22" fill="none" xmlns="http://www.w3.org/2000/svg">
<path d="M10.5 0C16.023 0 20.5 4.477 20.5 10C20.5 15.523 16.023 20 10.5 20C4.977 20 0.5 15.523 0.5 10C0.5 4.477 4.977 0 10.5 0ZM10.5 14C10.2348 14 9.98043 14.1054 9.79289 14.2929C9.60536 14.4804 9.5 14.7348 9.5 15C9.5 15.2652 9.60536 15.5196 9.79289 15.7071C9.98043 15.8946 10.2348 16 10.5 16C10.7652 16 11.0196 15.8946 11.2071 15.7071C11.3946 15.5196 11.5 15.2652 11.5 15C11.5 14.7348 11.3946 14.4804 11.2071 14.2929C11.0196 14.1054 10.7652 14 10.5 14ZM10.5 4.5C9.53859 4.5 8.61656 4.88192 7.93674 5.56174C7.25692 6.24156 6.875 7.16359 6.875 8.125C6.875 8.39022 6.98036 8.64457 7.16789 8.83211C7.35543 9.01964 7.60978 9.125 7.875 9.125C8.14022 9.125 8.39457 9.01964 8.58211 8.83211C8.76964 8.64457 8.875 8.39022 8.875 8.125C8.87533 7.83004 8.95594 7.54072 9.10818 7.28809C9.26043 7.03545 9.47857 6.82902 9.7392 6.69092C9.99984 6.55282 10.2932 6.48827 10.5877 6.50419C10.8822 6.52011 11.1669 6.61589 11.4111 6.78127C11.6553 6.94666 11.85 7.1754 11.9741 7.44297C12.0982 7.71054 12.1472 8.00686 12.1157 8.30014C12.0843 8.59342 11.9736 8.87261 11.7955 9.10777C11.6175 9.34292 11.3788 9.52518 11.105 9.635C10.429 9.905 9.5 10.597 9.5 11.75V12C9.5 12.2652 9.60536 12.5196 9.79289 12.7071C9.98043 12.8946 10.2348 13 10.5 13C10.7652 13 11.0196 12.8946 11.2071 12.7071C11.3946 12.5196 11.5 12.2652 11.5 12C11.5 11.756 11.55 11.634 11.761 11.53L11.848 11.49C12.6288 11.1759 13.276 10.6 13.6787 9.86092C14.0814 9.12188 14.2145 8.26578 14.0551 7.43938C13.8958 6.61299 13.4539 5.86776 12.8052 5.33147C12.1566 4.79518 11.3416 4.50122 10.5 4.5Z" fill="white"/>
</svg>
