<svg width="17" height="16" viewBox="0 0 17 16" fill="none" xmlns="http://www.w3.org/2000/svg">
<path d="M2.5 4.33333C2.5 5.622 3.54467 6.66667 4.83333 6.66667C6.122 6.66667 7.16667 5.622 7.16667 4.33333C7.16667 3.04467 6.122 2 4.83333 2C3.54467 2 2.5 3.04467 2.5 4.33333Z" fill="white"/>
<path d="M13.5007 2H10.834C10.2817 2 9.83398 2.44771 9.83398 3V5.66667C9.83398 6.21895 10.2817 6.66667 10.834 6.66667H13.5007C14.0529 6.66667 14.5007 6.21895 14.5007 5.66667V3C14.5007 2.44772 14.0529 2 13.5007 2Z" fill="white"/>
<path d="M9.83398 11.6668C9.83398 12.9555 10.8787 14.0002 12.1673 14.0002C13.456 14.0002 14.5007 12.9555 14.5007 11.6668C14.5007 10.3782 13.456 9.3335 12.1673 9.3335C10.8787 9.3335 9.83398 10.3782 9.83398 11.6668Z" fill="white"/>
<path d="M6.16667 9.3335H3.5C2.94772 9.3335 2.5 9.78121 2.5 10.3335V13.0002C2.5 13.5524 2.94771 14.0002 3.5 14.0002H6.16667C6.71895 14.0002 7.16667 13.5524 7.16667 13.0002V10.3335C7.16667 9.78121 6.71895 9.3335 6.16667 9.3335Z" fill="white"/>
</svg>
