<svg width="42" height="41" viewBox="0 0 42 41" fill="none" xmlns="http://www.w3.org/2000/svg">
<path d="M0 13.9103C0 6.22765 6.24063 0 13.9383 0H27.1426C34.8403 0 41.0809 6.22765 41.0809 13.9103V27.0887C41.0809 34.7714 34.8403 41 27.1426 41H13.9383C6.24063 40.999 0 34.7714 0 27.0887V13.9103Z" fill="white"/>
<path d="M31.727 7.87936C32.6108 7.58476 33.4517 8.42463 33.1571 9.30645L27.6465 25.8053C27.3648 26.6492 26.7017 27.3113 25.8559 27.5929L9.32503 33.0925C8.44022 33.3861 7.59935 32.5473 7.89395 31.6645L13.4046 15.1656C13.6862 14.3217 14.3503 13.6596 15.1952 13.379L31.727 7.87936ZM24.5177 16.8873C24.6325 16.6386 24.3748 16.382 24.1262 16.4958L20.6578 18.0877C20.5799 18.1236 20.4901 18.1236 20.4112 18.0877L16.9428 16.4958C16.6941 16.382 16.4375 16.6386 16.5513 16.8873L18.1462 20.3486C18.1821 20.4265 18.1821 20.5164 18.1462 20.5943L16.5513 24.0557C16.4375 24.3043 16.6941 24.56 16.9428 24.4461L20.4112 22.8543C20.4901 22.8183 20.5799 22.8183 20.6578 22.8543L24.1262 24.4461C24.3748 24.56 24.6325 24.3043 24.5177 24.0557L22.9228 20.5943C22.8868 20.5164 22.8868 20.4265 22.9228 20.3486L24.5177 16.8873Z" fill="#FF2626"/>
</svg>
