<svg width="20" height="20" viewBox="0 0 20 20" fill="none" xmlns="http://www.w3.org/2000/svg">
<path d="M1.58891 3.26613C1.51191 3.2671 1.43489 3.26565 1.35788 3.26429C1.21282 3.25919 1.06761 3.26155 0.922795 3.27134C0.38164 3.31644 0.161237 3.54198 0.136453 4.07562C0.0992768 4.88103 0.0671638 5.70001 0.0361029 6.49209L0.0015079 7.36881C-0.00082626 7.42652 -0.000428738 7.48447 0.0025489 7.54146C0.0414955 8.2796 0.318718 8.58368 1.06176 8.70352C1.1251 8.71365 1.18938 8.72081 1.25399 8.72764C1.47376 8.75175 1.68176 8.77498 1.87126 8.92095C1.87617 9.01982 1.88198 9.11908 1.88737 9.21835C1.90114 9.45539 1.91546 9.70064 1.91763 9.94137C1.92777 11.0642 1.93677 12.187 1.94466 13.3099C1.95399 14.5511 1.96413 15.7923 1.97507 17.0336C1.97518 17.421 1.99584 17.8083 2.03696 18.1936C2.09948 18.7269 2.25326 18.8792 2.78468 18.9347L2.97782 18.9552C3.48958 19.0183 4.0042 19.0557 4.51974 19.0669C5.06044 19.0694 5.59958 19.0706 6.13717 19.0707C7.54706 19.0707 8.94167 19.062 10.3003 19.0446C11.0302 19.0353 11.7716 19.0095 12.4886 18.9844C13.0157 18.966 13.5608 18.9469 14.0968 18.9347C14.6163 18.9227 15.145 18.9197 15.6565 18.9167C16.0373 18.9145 16.4312 18.9122 16.8187 18.9063C17.2602 18.8996 17.5028 18.6953 17.5812 18.2632C17.6017 18.1322 17.6122 17.9999 17.6124 17.8675C17.6142 17.8045 17.6158 17.7417 17.6199 17.6789C17.6521 17.1778 17.6853 16.6767 17.7196 16.1758C17.7932 15.0781 17.8694 13.9429 17.9307 12.8255C17.9504 12.4673 17.988 12.1016 18.0244 11.7484C18.1322 10.701 18.2437 9.61905 17.9181 8.52516C17.945 8.51929 17.971 8.51342 17.996 8.5078C18.0832 8.48634 18.1716 8.47018 18.2608 8.45957C18.3705 8.44919 18.4837 8.44349 18.593 8.43826C18.755 8.43023 18.9225 8.42219 19.087 8.39808C19.5276 8.33378 19.7797 8.0575 19.816 7.59974C19.8218 7.49204 19.8196 7.38405 19.8092 7.27668L19.808 7.2582C19.7362 6.24027 19.6632 5.22249 19.59 4.19273L19.5276 3.31854C19.5263 3.29959 19.5184 3.2817 19.5054 3.26785C19.4925 3.25401 19.4751 3.24506 19.4563 3.24251C19.4074 3.23591 19.3603 3.22866 19.3146 3.2215C19.2169 3.20639 19.1248 3.19216 19.0304 3.18637C18.7266 3.16783 18.4228 3.15009 18.1189 3.13316C17.5809 3.10237 17.0245 3.07064 16.4782 3.03245C16.3855 3.01984 16.2952 2.9938 16.2101 2.95513C16.1907 2.94758 16.1711 2.93995 16.1515 2.93249C16.1761 2.87878 16.2003 2.82759 16.2239 2.77832C16.294 2.63867 16.3547 2.49455 16.4056 2.34691C16.482 2.12256 16.5124 1.88513 16.4948 1.64883C16.4772 1.41254 16.4121 1.18223 16.3035 0.971612C16.188 0.761408 16.0314 0.576573 15.8428 0.428183C15.6543 0.279793 15.4377 0.17088 15.2061 0.107919C14.824 -0.00703361 14.4202 -0.0305491 14.0273 0.0392743C12.9055 0.236125 11.8948 0.748075 10.9372 1.6046C10.8165 1.71264 10.6958 1.82548 10.569 1.94492C10.5288 1.98295 10.4869 2.02208 10.4437 2.06244C10.4138 2.0142 10.3854 1.96856 10.358 1.9246C10.271 1.78425 10.1959 1.66311 10.1159 1.54318C9.86706 1.16079 9.52594 0.846982 9.12401 0.630546C8.02392 0.0452994 6.84769 -0.00605562 5.6281 0.477832C5.28009 0.622055 4.98186 0.864697 4.77001 1.17594C4.32147 1.80435 4.33957 2.32722 4.83068 2.9242C4.89784 3.00199 4.96923 3.076 5.04455 3.14595C5.06805 3.16886 5.09373 3.19418 5.12214 3.22167L4.45191 3.23018C3.43873 3.24287 2.51382 3.25503 1.58891 3.26613ZM3.24166 9.68665C3.2312 9.50097 3.21446 9.3169 3.19684 9.12295C3.19105 9.05985 3.18527 8.9957 3.17953 8.93051C3.20133 8.9265 3.22227 8.92247 3.24246 8.91854C3.30945 8.90278 3.37778 8.89354 3.44654 8.89065C5.12914 8.88831 6.81189 8.88831 8.55582 8.88847H9.56104C9.56063 9.35075 9.55653 9.80787 9.55259 10.2508C9.54309 11.3241 9.53408 12.3377 9.57374 13.363C9.61342 14.3906 9.70033 15.3931 9.7923 16.4546C9.82956 16.8848 9.86802 17.329 9.90279 17.772C9.85998 17.7844 9.81926 17.7972 9.78023 17.8095C9.68721 17.8446 9.58968 17.8663 9.49054 17.8737C7.60813 17.8876 5.75332 17.8936 3.5476 17.8978H3.54663C3.47787 17.8947 3.4096 17.8849 3.3428 17.8682C3.31746 17.8628 3.29099 17.8573 3.26299 17.8521C3.25889 17.8097 3.25453 17.768 3.25018 17.7266C3.23504 17.6051 3.2266 17.4829 3.22491 17.3604C3.23194 16.2131 3.23999 15.0658 3.24906 13.9184C3.25721 12.8116 3.26491 11.7048 3.27215 10.598C3.27393 10.2891 3.25774 9.97875 3.24166 9.68665ZM8.11855 4.4137C8.26565 4.4125 8.4129 4.40777 8.55976 4.40302C8.84357 4.39403 9.13624 4.38462 9.41684 4.40302C9.50921 4.98232 9.55081 6.64811 9.49183 7.45303C9.08249 7.55392 8.65036 7.54716 8.23177 7.54009C8.00823 7.53664 7.77688 7.53277 7.54915 7.54516C6.92881 7.57867 6.29552 7.58334 5.68307 7.58793L5.18989 7.59209C4.61551 7.59747 4.02148 7.60311 3.43994 7.57651C3.28166 7.56927 3.12008 7.5666 2.96388 7.5641C2.46071 7.55606 1.94096 7.54749 1.40214 7.38553L1.26736 4.46272C1.56033 4.43431 1.85558 4.43923 2.14745 4.47736C2.29551 4.49134 2.44863 4.50591 2.59967 4.51001C3.04159 4.52191 3.5002 4.52816 4.00176 4.52897C4.44596 4.52953 4.92378 4.52826 5.40466 4.51339C5.64012 4.50608 5.87879 4.49185 6.10948 4.47819C6.31009 4.46621 6.51753 4.45404 6.72104 4.446C7.19187 4.42824 7.66196 4.41741 8.11855 4.4137ZM6.14191 3.12464L5.63167 2.41241C5.67189 1.97321 5.8849 1.71841 6.32008 1.5882C6.96382 1.39528 7.55761 1.39189 8.134 1.57709C8.78789 1.78728 9.20529 2.22816 9.51476 3.04257L6.14191 3.12464ZM11.0794 2.94261C11.8157 2.08339 12.8222 1.49926 13.934 1.28588C14.335 1.20348 14.7907 1.17656 15.1425 1.59549C15.2198 2.38009 15.2196 2.40548 14.996 2.91035C14.9731 2.9142 14.9497 2.91841 14.926 2.92282C14.841 2.94098 14.7547 2.95205 14.6679 2.95588C13.5386 2.97195 12.3504 2.9843 11.1353 2.9925C11.1232 2.98332 11.1117 2.97336 11.1009 2.96262C11.0939 2.95595 11.0866 2.94912 11.0794 2.94261ZM10.7043 13.3197C10.7323 12.2932 10.7258 11.2879 10.7191 10.2235C10.7162 9.78528 10.7134 9.34415 10.7131 8.89892C11.5339 8.80062 16.4644 8.575 17.2859 8.59702C17.2699 8.67266 17.2532 8.74821 17.2366 8.82353C17.185 9.05615 17.132 9.29656 17.1012 9.53747C16.989 10.4216 16.9019 11.1644 16.8407 11.9156C16.7699 12.787 16.7146 13.6738 16.6612 14.5316C16.6455 14.7837 16.6296 15.0358 16.6136 15.288C16.5909 15.6458 16.5692 16.0037 16.5487 16.3615C16.5247 16.7715 16.5006 17.1809 16.4738 17.5904C16.4665 17.6355 16.4524 17.6792 16.4315 17.7199C16.4253 17.7346 16.4188 17.7494 16.4125 17.765H10.4729C10.497 17.3245 10.5234 16.8871 10.5497 16.452C10.6117 15.4239 10.6758 14.3607 10.7043 13.3197ZM18.3947 3.99555C18.4006 4.00401 18.4044 4.01369 18.406 4.02385C18.3839 4.95988 18.3608 5.89594 18.3368 6.85929L18.3309 7.10211C18.2878 7.11064 18.2455 7.11953 18.2038 7.12837C18.0833 7.15698 17.9608 7.17713 17.8374 7.18866C15.5038 7.34692 13.1584 7.43085 10.865 7.43784C10.7482 6.79183 10.7125 5.13278 10.8007 4.40351C11.2786 4.297 11.7824 4.28589 12.2707 4.27488C12.4032 4.27199 12.5356 4.26911 12.6676 4.26429C12.9701 4.2536 13.2786 4.2518 13.5769 4.25011C13.9001 4.24827 14.2342 4.24635 14.5629 4.23301C15.2258 4.20624 15.8756 4.15703 16.5383 4.10439C16.9746 4.06999 17.4106 4.02786 17.8321 3.98712C18.0024 3.97072 18.1702 3.95467 18.3357 3.93892C18.3461 3.94865 18.3551 3.95685 18.3632 3.964C18.3745 3.97363 18.385 3.98409 18.3947 3.99532V3.99555Z" fill="#51A800"/>
</svg>
