<svg width="20" height="20" viewBox="0 0 20 20" fill="none" xmlns="http://www.w3.org/2000/svg">
<g clip-path="url(#clip0_164_278)">
<path fill-rule="evenodd" clip-rule="evenodd" d="M7.35666 19.5993C7.22466 19.5871 7.1029 19.523 7.01814 19.4211C6.93338 19.3192 6.89256 19.1878 6.90465 19.0558L7.30616 14.6973L9.32816 15.7673L9.79366 12.9703C9.81547 12.8395 9.88836 12.7227 9.99628 12.6456C10.0497 12.6074 10.1102 12.5802 10.1741 12.5653C10.2381 12.5505 10.3044 12.5485 10.3692 12.5593C10.4339 12.5701 10.4959 12.5935 10.5517 12.6283C10.6074 12.6631 10.6557 12.7085 10.6938 12.7619C10.732 12.8153 10.7593 12.8758 10.7741 12.9398C10.7889 13.0037 10.791 13.07 10.7802 13.1348L10.0872 17.2998L8.16416 16.2828L7.90066 19.1473C7.89463 19.2127 7.87578 19.2763 7.84517 19.3344C7.81457 19.3925 7.77282 19.444 7.7223 19.486C7.67178 19.528 7.61349 19.5596 7.55075 19.579C7.48801 19.5984 7.42206 19.6053 7.35666 19.5993ZM0.352655 12.8763C0.320604 12.819 0.300158 12.7559 0.292486 12.6907C0.284814 12.6254 0.290066 12.5593 0.307942 12.4962C0.325818 12.433 0.355968 12.3739 0.396669 12.3224C0.437371 12.2708 0.487827 12.2278 0.545155 12.1958L4.51666 9.97628L4.79116 12.3548L7.51265 11.0848C7.63286 11.0288 7.77041 11.0228 7.89502 11.0682C8.01964 11.1135 8.12113 11.2066 8.17716 11.3268C8.23318 11.447 8.23916 11.5845 8.19378 11.7091C8.14839 11.8338 8.05536 11.9353 7.93516 11.9913L3.95666 13.8478L3.69516 11.5813L1.03316 13.0688C0.917439 13.1334 0.780822 13.1493 0.653318 13.1133C0.525815 13.0772 0.417354 12.9919 0.352655 12.8763ZM2.67716 2.77578C2.74596 2.66252 2.85691 2.5812 2.98564 2.5497C3.11436 2.5182 3.25032 2.53909 3.36366 2.60778L7.34716 5.02528L5.35866 6.47678L7.89265 8.28028C7.94617 8.31836 7.99166 8.36661 8.02652 8.42228C8.06139 8.47794 8.08495 8.53992 8.09586 8.60469C8.10677 8.66946 8.10482 8.73574 8.09011 8.79976C8.07541 8.86377 8.04824 8.92426 8.01016 8.97778C7.97207 9.03129 7.92382 9.07678 7.86816 9.11165C7.81249 9.14651 7.75051 9.17007 7.68574 9.18098C7.62097 9.1919 7.55469 9.18994 7.49067 9.17524C7.42666 9.16053 7.36617 9.13336 7.31265 9.09528L3.64816 6.48728L5.54616 5.10228L2.84516 3.46228C2.73189 3.39348 2.65058 3.28252 2.61908 3.1538C2.58757 3.02507 2.60846 2.88911 2.67716 2.77578ZM13.6282 0.668778C13.7586 0.691942 13.8745 0.765928 13.9504 0.874487C14.0264 0.983046 14.0561 1.1173 14.0332 1.24778L13.2822 5.50878L11.3807 4.29228L10.6977 6.99378C10.6645 7.12156 10.5821 7.23103 10.4684 7.29829C10.3548 7.36555 10.2192 7.38514 10.0912 7.3528C9.96322 7.32045 9.8532 7.23878 9.78518 7.12562C9.71716 7.01247 9.69667 6.877 9.72816 6.74878L10.7512 2.70178L12.5577 3.85828L13.0487 1.07428C13.0601 1.00959 13.0841 0.947793 13.1194 0.892404C13.1547 0.837015 13.2006 0.789124 13.2544 0.751467C13.3082 0.71381 13.3689 0.687126 13.433 0.672938C13.4972 0.658749 13.5635 0.657336 13.6282 0.668778ZM19.9267 7.68128C19.9583 7.73883 19.9782 7.80204 19.9854 7.86732C19.9926 7.93259 19.9869 7.99863 19.9685 8.06168C19.9502 8.12474 19.9196 8.18356 19.8785 8.23479C19.8375 8.28602 19.7867 8.32866 19.7292 8.36028L15.9212 10.4488L15.6797 8.19428L13.1312 9.35928C13.0105 9.41444 12.8728 9.41941 12.7485 9.37309C12.6242 9.32677 12.5233 9.23295 12.4682 9.11228C12.413 8.9916 12.408 8.85396 12.4543 8.72962C12.5007 8.60529 12.5945 8.50444 12.7152 8.44928L16.5257 6.70828L16.7557 8.85028L19.2482 7.48328C19.3644 7.41962 19.5012 7.40471 19.6284 7.44184C19.7556 7.47897 19.8629 7.56509 19.9267 7.68128ZM17.3317 16.7443C17.2629 16.8575 17.1519 16.9389 17.0232 16.9704C16.8944 17.0019 16.7585 16.981 16.6452 16.9123L12.8857 14.6308L14.7442 13.2743L12.4182 11.6188C12.3646 11.5807 12.3192 11.5324 12.2843 11.4768C12.2494 11.4211 12.2259 11.3591 12.2149 11.2944C12.204 11.2296 12.206 11.1633 12.2207 11.0993C12.2354 11.0353 12.2626 10.9748 12.3007 10.9213C12.3776 10.8132 12.4943 10.7401 12.6251 10.7181C12.6898 10.7072 12.7561 10.7091 12.8201 10.7238C12.8842 10.7385 12.9446 10.7657 12.9982 10.8038L16.4542 13.2638L14.6867 14.5538L17.1637 16.0573C17.2198 16.0913 17.2687 16.1361 17.3075 16.1891C17.3464 16.2421 17.3744 16.3022 17.39 16.366C17.4056 16.4298 17.4085 16.496 17.3984 16.5609C17.3884 16.6258 17.3657 16.6881 17.3317 16.7443Z" fill="white"/>
</g>
<defs>
<clipPath id="clip0_164_278">
<rect width="20" height="20" fill="white"/>
</clipPath>
</defs>
</svg>
