<svg width="81" height="81" viewBox="0 0 81 81" fill="none" xmlns="http://www.w3.org/2000/svg">
<path fill-rule="evenodd" clip-rule="evenodd" d="M0.294543 8.93173C0.341936 9.18404 0.52836 10.5027 0.716066 11.8612C1.4491 17.1492 2.02054 20.2619 2.38208 20.9184C2.66087 21.4447 3.10063 21.6837 3.71535 21.6629C4.42162 21.6389 4.85256 21.1963 5.08448 20.2646C5.2819 19.4819 5.30032 19.2405 5.7676 14.6341C5.93665 12.9691 6.09993 11.5313 6.13574 11.4234C6.17154 11.3149 6.56913 12.2783 7.04243 13.5603C9.22558 19.5621 12.3707 24.9423 16.5189 29.7534C18.1368 31.6122 21.9999 35.2952 23.7588 36.6542C27.5979 39.5886 31.9116 41.811 36.9388 43.4203C37.9182 43.7484 38.7268 44.0556 38.7285 44.1091C38.7307 44.1759 38.6641 44.9543 38.6009 45.8398C38.1821 51.1402 39.8393 56.6646 43.3796 61.7102C47.0301 66.9262 51.199 70.3445 59.1539 74.6382C67.0953 78.9323 73.7149 80.782 77.8879 79.8508C79.7993 79.438 80.6545 78.7532 80.6454 77.6562C80.6342 76.9071 80.3838 76.8621 80.0653 77.542C79.7597 78.2081 79.4532 78.446 78.5568 78.6638C73.9839 79.7959 65.5235 76.8711 55.8884 70.8144C50.8375 67.6535 47.7752 64.8533 44.9621 60.8402C41.7102 56.213 40.1487 51.2207 40.4382 46.3796C40.5644 44.1939 40.4261 44.3726 41.8607 44.605C47.4811 45.5251 53.103 44.4511 55.6553 41.9823C58.7524 38.9464 57.9885 33.9136 54.1792 32.3164C52.4937 31.6108 49.9424 31.6706 47.8856 32.4497C44.6393 33.6974 42.3165 35.5695 40.7262 38.2331C40.1673 39.1755 39.352 41.1035 39.3632 41.4511C39.3727 41.7452 39.0706 41.7153 37.7611 41.3047C34.335 40.2165 30.6287 38.5623 28.0895 36.9622C23.9203 34.3469 19.1137 29.8259 15.9249 25.5312C13.1874 21.8368 10.8931 17.6721 9.34732 13.5757C8.64672 11.7393 7.60637 8.29506 7.70713 8.17124C7.74551 8.14312 8.2663 8.4604 8.88172 8.86747C12.068 11.0481 14.9179 12.1291 17.6705 12.2229C19.1907 12.2649 19.6725 12.1818 19.4795 11.8808C19.4381 11.8148 18.7455 11.4503 17.9474 11.0626C15.8204 10.0643 11.7446 7.0979 6.56518 2.79038C5.54282 1.94177 4.40315 1.11025 3.96467 0.911157C2.23644 0.0996209 0.829732 0.736211 0.32493 2.54676C0.172092 3.08717 0.131195 3.85145 0.182588 5.8571C0.202429 7.28865 0.260211 8.67841 0.294543 8.93173ZM2.8697 4.32058C2.92073 4.27891 3.26938 4.5347 3.64764 4.89675L4.33659 5.55582L3.98812 7.74907C3.80447 8.95985 3.62251 10.2236 3.59403 10.5596C3.51346 11.3115 3.33018 11.7194 3.28854 11.2387C3.28252 11.0517 3.16215 10.1588 3.04095 9.23968C2.81935 7.64151 2.70526 4.5002 2.8697 4.32058ZM41.7528 40.4332C42.9878 37.7148 45.1127 35.7958 48.165 34.6216C51.9027 33.1833 55.1247 34.439 55.2459 37.3925C55.3088 38.9428 54.4101 40.3116 52.7744 41.1566C51.229 41.9585 49.6441 42.3469 47.1743 42.4976C45.0577 42.6363 43.9957 42.592 41.9306 42.3007L41.115 42.1813L41.2691 41.6809C41.3516 41.397 41.5695 40.8409 41.7528 40.4332Z" fill="#FBBE24"/>
</svg>
